<?xml version="1.0" encoding="UTF-8" standalone="no"?>
<!-- Created with Inkscape (http://www.inkscape.org/) -->
<svg
   xmlns:dc="http://purl.org/dc/elements/1.1/"
   xmlns:cc="http://web.resource.org/cc/"
   xmlns:rdf="http://www.w3.org/1999/02/22-rdf-syntax-ns#"
   xmlns:svg="http://www.w3.org/2000/svg"
   xmlns="http://www.w3.org/2000/svg"
   xmlns:sodipodi="http://sodipodi.sourceforge.net/DTD/sodipodi-0.dtd"
   xmlns:inkscape="http://www.inkscape.org/namespaces/inkscape"
   id="svg2"
   sodipodi:version="0.32"
   inkscape:version="0.45"
   width="778"
   height="679"
   version="1.0"
   sodipodi:docbase="/home/andrew/temp"
   sodipodi:docname="Constellation_logo_white.svg"
   inkscape:output_extension="org.inkscape.output.svg.inkscape"
   sodipodi:modified="true">
  <metadata
     id="metadata7">
    <rdf:RDF>
      <cc:Work
         rdf:about="">
        <dc:format>image/svg+xml</dc:format>
        <dc:type
           rdf:resource="http://purl.org/dc/dcmitype/StillImage" />
      </cc:Work>
    </rdf:RDF>
  </metadata>
  <defs
     id="defs5" />
  <sodipodi:namedview
     inkscape:window-height="633"
     inkscape:window-width="910"
     inkscape:pageshadow="2"
     inkscape:pageopacity="0.0"
     guidetolerance="10.0"
     gridtolerance="10.0"
     objecttolerance="10.0"
     borderopacity="1.0"
     bordercolor="#666666"
     pagecolor="#ffffff"
     id="base"
     inkscape:zoom="0.45254834"
     inkscape:cx="394.95976"
     inkscape:cy="369.68615"
     inkscape:window-x="0"
     inkscape:window-y="55"
     inkscape:current-layer="layer5" />
  <g
     inkscape:groupmode="layer"
     id="layer5"
     inkscape:label="Bitmap"
     style="display:inline" />
  <g
     inkscape:groupmode="layer"
     id="layer2"
     inkscape:label="Blue"
     style="display:inline">
    <path
       style="fill:#1e1db0"
       d="M 360.0625,26.5 C 360.03392,26.492542 359.99419,26.515525 359.96875,26.53125 C 359.56166,26.782844 358.91576,29.485004 358.53125,32.5625 C 357.67086,39.448848 355.65979,41.627077 349.3125,42.5625 C 340.30134,43.890509 339.96395,44.648704 347.78125,45.96875 C 356.07333,47.368973 357.50158,48.690675 358.53125,56 C 358.8799,58.475 359.43537,61.175 359.75,62 C 360.06463,62.825 360.89437,60.407932 361.625,56.625 C 362.35562,52.842066 363.442,49.147492 364.03125,48.4375 C 364.62049,47.727507 368.26944,46.619078 372.125,45.96875 C 375.98056,45.318425 378.92559,44.613081 378.6875,44.375 C 378.44942,44.13692 375.38534,43.466652 371.875,42.90625 C 368.36466,42.345847 364.92949,41.326137 364.21875,40.625 C 363.50802,39.923864 362.41792,36.340993 361.8125,32.6875 C 361.24494,29.262351 360.49116,26.611863 360.0625,26.5 z "
       id="path3504" />
    <path
       style="fill:#1e1db0"
       d="M 301.80469,116.33984 C 301.08194,118.41622 300.87079,119.41445 300.5,122.125 C 299.14547,132.02668 299.09899,132.04513 286.5,134.78125 L 282.5,135.65625 L 287,136.40625 C 297.97731,138.21304 299.20357,139.36249 300.59375,149.375 C 300.98958,152.22584 300.86624,151.32425 301.65092,153.24863 C 302.33795,151.26676 302.95644,150.15774 303.46875,146.34375 C 303.86032,143.42866 304.94657,140.45928 305.9375,139.5625 C 306.90408,138.68776 310.79338,137.40009 314.59375,136.6875 L 321.5,135.375 L 316.5,134.625 C 307.11883,133.22216 305.15289,132.22586 304.03125,128.1875 C 303.46883,126.16254 303.01149,123.375 303,122 C 302.97751,119.30853 302.23446,118.07207 301.80469,116.33984 z "
       id="path3502"
       sodipodi:nodetypes="cscccscsscccssc" />
    <path
       style="fill:#1e1db0"
       d="M 480.3125,132.28125 C 480.14615,132.35631 480.04368,132.788 480.03125,133.6875 C 480.01452,134.89793 479.50304,138.18598 478.90625,140.96875 C 477.65124,146.82065 476.32808,147.80033 467.5,149.5 L 461.5,150.65625 L 465.5,151.4375 C 477.95091,153.80927 478.26934,154.10989 479.59375,164.09375 C 480.35078,169.80053 481.33265,169.05986 482.40625,162 C 483.36054,155.72464 485.19135,153.36872 489.6875,152.59375 C 491.78127,152.23286 494.85,151.63066 496.5,151.28125 L 499.5,150.65625 L 497,149.9375 C 495.625,149.53555 493.03124,149.14856 491.21875,149.09375 C 486.54884,148.9525 483.33796,145.39032 482.46875,139.375 C 481.86059,135.16626 480.81155,132.05608 480.3125,132.28125 z "
       id="path3500" />
    <path
       style="fill:#1e1db0"
       d="M 363.75,133.71875 C 363.29901,133.66834 363,134.74253 363,137.09375 C 363,141.523 360.41917,146.90266 357.8125,147.875 C 356.5484,148.34654 353.31915,149.04628 350.65625,149.4375 C 347.99334,149.82872 346.01414,150.35789 346.25,150.59375 C 346.48586,150.82961 349.3417,151.49769 352.59375,152.09375 C 359.9729,153.44626 361.60458,154.90717 362.4375,160.8125 C 362.80129,163.39177 363.38178,166.4 363.71875,167.5 C 364.12849,168.83757 364.76609,167.23208 365.625,162.65625 C 366.33136,158.89315 367.3943,155.22983 368,154.5 C 368.6057,153.77017 372.35536,152.60245 376.3125,151.90625 L 383.5,150.625 L 376.53125,149.3125 C 372.70125,148.58949 368.97158,147.40908 368.25,146.6875 C 367.52842,145.96592 366.44091,142.59782 365.8125,139.21875 C 365.15729,135.69552 364.32985,133.78357 363.75,133.71875 z "
       id="path3498" />
    <path
       style="fill:#1e1db0"
       d="M 288,157 C 287.58442,157 286.95506,159.5875 286.59375,162.75 C 286.23244,165.9125 285.61599,168.98858 285.21875,169.59375 C 283.97326,171.49119 280.52813,172.85404 275.1875,173.5625 C 268.7433,174.41735 269.27929,175.55877 276.5625,176.46875 C 283.59288,177.34713 285.5729,179.28591 286.5,186.15625 C 286.89772,189.10359 287.49243,191.93408 287.8125,192.46875 C 288.13258,193.0034 288.97999,190.30339 289.6875,186.46875 C 290.42001,182.4987 291.65448,179.00814 292.5625,178.34375 C 293.43956,177.70201 296.46753,176.85091 299.3125,176.46875 C 307.32454,175.39253 307.92723,174.37748 301,173.59375 C 292.86453,172.67333 290.43216,170.33594 289.46875,162.625 C 289.08158,159.52621 288.41558,157 288,157 z "
       id="path3496" />
    <path
       style="fill:#1e1db0"
       d="M 488.0625,186.5625 C 475.70976,186.50201 463.28291,189.32654 451.8125,195.09375 C 447.39629,197.31418 443.9594,199.27191 444.15625,199.46875 C 444.35309,199.66558 448.32741,198.74023 453,197.375 C 463.71908,194.24311 476.46454,193.32663 486.6875,194.96875 C 502.73438,197.54637 519.49064,205.75139 529.46875,215.9375 C 531.33623,217.84392 533.14727,219.44939 534.34375,220.3125 L 550.6875,248.96875 L 552.0625,256.09375 C 554.22725,267.22792 553.81646,283.83454 551.15625,293.3125 C 546.98225,308.184 539.97138,319.96826 529.09375,330.34375 C 525.74501,333.53791 523,336.34126 523,336.59375 C 523,337.53301 531.30722,332.33387 536.78125,327.96875 C 553.72482,314.45744 564.97295,293.17357 566.65625,271.40625 C 567.3334,262.64981 565.7429,248.6744 563.4375,243.15625 L 562.03125,239.84375 C 556.63242,232.21649 550.89022,221.76743 546,212.8125 C 546,211.44225 538.93284,204.78922 533.375,200.9375 C 519.74524,191.49176 503.9446,186.64027 488.0625,186.5625 z "
       id="path3494"
       sodipodi:nodetypes="cssssscccssssscccsc" />
    <path
       style="fill:#1e1db0"
       d="M 379.46875,208.53125 C 359.00472,208.61502 338.66459,213.9778 320.78125,224.71875 C 316.52982,227.27221 313.15942,229.50315 313.3125,229.65625 C 313.4656,229.80934 316.34605,228.81842 319.6875,227.46875 C 333.3515,221.94961 342.02764,220.52851 362,220.5625 C 378.82712,220.59113 381.37293,220.83884 390.28125,223.25 C 410.83711,228.81369 431.04254,240.30591 444.90625,254.3125 L 452.3125,261.8125 L 468,285.59375 L 470.34375,289.84375 L 476.125,307.1875 C 476.34345,308.54136 476.89967,311.20166 477.53125,314 C 479.69739,323.59761 480.47214,342.98093 479.09375,353.28125 C 475.41858,380.74462 461.97793,406.63198 441.34375,425.9375 C 436.6002,430.3756 433.02308,434 433.40625,434 C 437.26426,434 454.79028,421.36271 464.53125,411.5625 C 489.04201,386.90263 500.13471,357.88087 498.75,322 C 498.25258,309.11081 495.81207,294.63924 493.96875,293.5 L 471.875,251.84375 C 470.36079,248.38896 455.18272,234.56121 446.125,228.53125 C 425.9968,215.13137 402.66132,208.43631 379.46875,208.53125 z "
       id="path3492"
       sodipodi:nodetypes="cssssscccccssssssccsc" />
    <path
       style="fill:#1e1db0"
       d="M 216.09375,235.4375 C 187.91492,235.74799 160.00172,242.68445 134.21875,255.96875 C 124.93774,260.75065 113.66583,268 115.53125,268 C 116.01793,268 120.04612,266.45017 124.46875,264.5625 C 145.86672,255.42938 178.0142,250.68715 203,252.96875 C 242.06358,256.53587 274.33404,269.70009 305.3125,294.75 L 314.09375,301.875 L 333.1875,323.71875 L 340.1875,333.90625 C 343.99245,339.74035 349.79785,350.02493 353.09375,356.78125 C 354.43896,359.53881 355.56934,361.74446 356.53125,363.5 L 363.46875,385.625 C 363.88391,385.83566 364.17608,387.8132 364.375,388.59375 C 374.44882,427.56391 370.19166,474.12608 353.28125,509.875 C 341.54721,534.68099 324.84824,555.88395 300.5625,576.8125 C 292.94945,584.24729 311.09971,573.96976 314,571.96875 C 314.275,571.61521 316.99444,569.74047 320.03125,567.8125 C 328.64777,562.34221 342.8855,550.06808 351,541.125 C 389.28141,498.93457 406.35468,443.06331 397.5625,388.75 C 395.9989,379.09097 392.13715,364.20279 391,363.5 C 391,363.5 389.29845,358.42552 385.84375,349.65625 C 382.34993,340.78768 380.17216,335.39864 376.46875,329 C 372.16672,322.16269 371.95967,320.93345 367.6875,316.34375 L 348.09375,291.49609 C 343.66655,285.87089 344.7963,287.84387 339.21875,282.4375 C 317.6739,261.55389 286.35475,245.66932 254.5,239.125 C 241.75749,236.50714 228.90231,235.29637 216.09375,235.4375 z "
       id="path3490"
       sodipodi:nodetypes="cssssccccscccsccsssczcccssc" />
    <path
       style="fill:#1e1db0"
       d="M 481.59375,281.4375 C 479.90293,281.41779 469.58399,284.55647 468.15625,285.59375 C 467.97419,285.72602 468.35484,286.75916 468.96875,287.90625 C 469.58267,289.05336 470.2997,290 470.59375,290 C 470.8878,290 473.23357,288.5375 475.78125,286.75 C 478.32892,284.9625 480.87699,283.19509 481.4375,282.8125 C 481.998,282.42991 482.16356,281.81978 481.8125,281.46875 C 481.78147,281.43772 481.70647,281.43881 481.59375,281.4375 z "
       id="path3486" />
    <path
       style="fill:#1e1db0"
       d="M 612.71875,367.09375 C 612.24611,367.4209 611.14081,371.41041 610.59375,375.125 C 609.74271,380.90381 607.79324,382.71168 601,384 C 594.24369,385.28131 593.85534,385.72282 598.65625,386.53125 C 600.77495,386.88803 603.94194,387.61343 605.71875,388.15625 C 609.08454,389.1845 609.67918,390.40693 611.5625,400.5 L 612.3125,404.5 L 613.1875,400.5 C 615.79046,388.77089 617.11241,387.11172 623.8125,386.9375 C 625.29912,386.89885 627.4,386.49599 628.5,386.0625 C 630.64978,385.2153 630.11616,385.04008 620.84375,383.53125 C 618.83652,383.20463 616.68722,382.34647 616.0625,381.59375 C 615.14094,380.48334 613.24358,371.92415 612.9375,367.5 C 612.91227,367.13534 612.82782,367.01825 612.71875,367.09375 z "
       id="path3478" />
    <path
       style="fill:#1e1db0"
       d="M 537.90625,412.125 C 537.50001,412.34 537.0663,413.96899 536.5,416.9375 C 535.01553,424.71909 533.05124,426.58388 525.46875,427.53125 C 522.45801,427.90741 520,428.57675 520,429 C 520,429.42325 522.45803,430.09259 525.46875,430.46875 C 532.92908,431.40086 534.83084,433.20259 536.25,440.6875 C 537.41951,446.85573 538.98948,448.27548 539,443.1875 C 539.00797,439.33798 540.85767,433.21145 542.28125,432.3125 C 542.94838,431.89122 546.425,431.03169 550,430.40625 C 556.85928,429.20626 556.57594,428.558 548.6875,427.5 C 542.59965,426.6835 540.31649,424.40035 539.5,418.3125 C 538.90559,413.88057 538.42855,411.84857 537.90625,412.125 z "
       id="path3476" />
    <path
       style="fill:#1e1db0"
       d="M 535.09375,446.6875 C 534.59641,446.70219 534.11187,448.5107 533.6875,452.09375 C 532.73542,460.13258 531.26391,461.58559 522.78125,463.0625 L 515.5,464.34375 L 522.5,465.75 C 526.35,466.53136 530.25765,467.85781 531.1875,468.6875 C 532.18048,469.57347 533.1607,472.5262 533.5625,475.84375 C 533.93879,478.95053 534.51568,481.95 534.84375,482.5 C 535.17184,483.05 535.94505,480.43206 536.5625,476.6875 C 537.17993,472.94295 538.35516,469.23861 539.15625,468.4375 C 539.95735,467.63639 543.40605,466.48054 546.84375,465.875 C 550.28142,465.26947 552.91541,464.57168 552.6875,464.34375 C 552.45957,464.11583 549.61252,463.52079 546.375,463 C 539.08262,461.82696 537.42288,459.95147 536.5,452 C 536.08701,448.44169 535.59109,446.67281 535.09375,446.6875 z "
       id="path3474" />
    <path
       style="fill:#1e1db0"
       d="M 433.65625,509.53125 C 433.51275,509.65137 433.27758,510.30353 432.9375,511.5 C 432.46849,513.15 431.83052,516.21931 431.5,518.3125 C 430.63066,523.81788 428.13851,525.76194 421.0625,526.5625 C 414.10828,527.34928 413.95324,528.46823 420.625,529.46875 C 429.68545,530.82745 430.295,531.55711 432.5625,543.5 L 433.34375,547.5 L 434.65625,540.5 C 436.24369,532.11208 437.92884,530.41861 445.53125,529.46875 C 448.54199,529.09259 451,528.41561 451,528 C 451,527.58442 448.31776,526.96558 445.03125,526.59375 C 441.74475,526.22192 438.41622,525.25999 437.625,524.46875 C 436.23759,523.08134 434.11674,515.22534 433.90625,510.6875 C 433.86554,509.80978 433.79975,509.41113 433.65625,509.53125 z "
       id="path3472" />
    <path
       style="fill:#1e1db0"
       d="M 560.8125,524.3125 C 560.40387,524.52799 559.9393,526.26408 559.34375,529.4375 C 558.62791,533.25199 557.45762,536.97987 556.71875,537.71875 C 555.97987,538.45762 552.25201,539.62794 548.4375,540.34375 C 541.15173,541.71102 541.46563,542.31602 550.09375,543.53125 C 552.61525,543.88639 555.12882,544.48004 555.6875,544.84375 C 557.48255,546.01237 558.74983,549.35419 559.5,554.90625 C 560.32292,560.99659 561.34785,560.23145 562.4375,552.6875 C 563.29715,546.73583 565.52109,544.40946 571.15625,543.53125 C 579.56008,542.22157 579.76615,541.70676 572.5,540.34375 C 564.56407,538.85512 563.36715,537.75789 562.46875,531.125 C 561.81162,526.27347 561.33788,524.03544 560.8125,524.3125 z "
       id="path2165" />
  </g>
  <g
     inkscape:groupmode="layer"
     id="layer3"
     inkscape:label="Red"
     style="display:inline">
    <path
       style="fill:#cb1b27;display:inline"
       d="M 628.92969,150.5 C 601.30198,176.54888 577.55361,195.83823 535.79301,220.36702 C 509.27674,238.55543 479.07119,250.34086 449.62245,262.79511 C 400.60762,280.67958 348.87995,289.66241 299.5933,306.73698 C 240.99157,325.76215 183.16411,348.50107 130.54219,380.99114 C 139.4146,387.23408 167.45462,368.23212 183.14954,365.97649 C 240.39117,346.03646 298.92707,329.73957 358.29988,318.12906 C 392.80266,309.38664 427.48139,300.94468 460.63271,287.6955 C 472.08745,283.51091 486.44894,277.53972 482.5394,281.16905 C 476.86527,286.4365 447.95574,306.86707 444.4003,309.0438 C 399.84302,340.88621 354.73532,371.85589 311.27753,405.1852 C 272.64726,436.26783 233.96898,467.14434 198.01341,501.30569 C 194.19044,511.9611 215.94695,489.02892 221.41936,486.2003 C 287.73387,434.83704 354.55289,384.09813 425.55033,339.35517 C 457.0519,317.81205 489.97029,298.23627 518.94063,273.23397 C 547.84292,251.68052 575.95043,228.28896 597.33393,198.88438 C 602.55544,191.35282 624.79191,161.08925 630.45928,152.82429 C 629.96729,151.82057 629.39611,151.10744 628.92969,150.5 z "
       id="path3451"
       sodipodi:nodetypes="ccccccccsccccccccc" />
  </g>
  <g
     inkscape:groupmode="layer"
     id="layer1"
     inkscape:label="Constellation"
     style="display:inline">
    <path
       style="fill:#0e0e0e"
       d="M 493.9375,597 C 493.63459,596.99748 489.19982,607.4625 484.0625,620.25 C 472.83108,648.20646 470.59774,652.80983 467.71875,653.96875 C 466.20651,654.57749 468.49697,654.86862 475,654.84375 C 480.33802,654.82336 483.40179,654.48382 482,654.09375 C 478.68311,653.17083 478.50711,651.40263 481.03125,644.65625 L 483.15625,639 L 492.5625,639 C 497.74798,639 502.3375,638.99555 502.75,639 C 503.71252,639.01031 506.83588,647.78868 506.9375,650.78125 C 506.98764,652.25772 506.20562,653.38369 504.75,653.96875 C 503.17365,654.60236 505.34431,654.875 512,654.875 C 518.82834,654.875 520.84827,654.60362 519.1875,653.9375 C 516.31673,652.786 512.90018,645.44689 502.375,617.75 C 498.03906,606.34001 494.24042,597.0025 493.9375,597 z M 83.78125,597.375 C 78.367131,597.29275 72.540303,598.09741 67.59375,599.6875 C 60.418136,601.99411 52.672155,609.85611 50.59375,616.9375 C 45.334442,634.85659 54.8098,651.50667 72.21875,654.9375 C 78.394304,656.15454 83.193684,656.1381 88.9375,654.90625 L 94,653.84375 L 94,647.90625 C 94,641.40627 93.051753,640.39218 91.3125,645 C 89.938545,648.64002 86.683909,650 79.40625,650 C 63.765463,650 53.606331,636.7649 56.9375,620.71875 C 59.220132,609.72337 68.386513,602.96676 80.9375,603 C 88.005644,603.0187 91.20474,604.67305 92.59375,608.9375 C 94.02946,613.34536 94.657468,611.90315 94.5625,604.5 L 94.5,598.5 L 89,597.75 C 87.331117,597.5198 85.585956,597.40242 83.78125,597.375 z M 636.84375,597.46875 C 632.90834,597.56169 629.0571,598.30305 625.875,599.71875 C 601.31477,610.64538 602.82305,646.30198 628.1875,654.59375 C 634.00695,656.49616 644.89265,655.73064 650.46875,653.03125 C 660.07121,648.38278 665.85474,639.65335 666.75,628.5 C 667.76108,615.90398 662.11322,605.64474 651.21875,600.3125 C 647.10156,598.29737 641.90357,597.34926 636.84375,597.46875 z M 137,597.65625 C 124.74432,597.65625 115.66523,602.95957 110.46875,613.125 C 105.69677,622.45998 106.38245,634.68942 112.15625,643.40625 C 115.76945,648.86119 119.65427,651.80541 126.46875,654.25 C 130.12535,655.56176 133.30508,655.93373 138.15625,655.59375 C 149.18378,654.82098 157.67466,649.27234 162.78125,639.5 C 164.98616,635.28052 165.40285,633.17312 165.4375,626 C 165.47297,618.65698 165.10852,616.79787 162.78125,612.375 C 157.62125,602.56867 149.01763,597.65626 137,597.65625 z M 259.25,597.75 C 252.65543,597.90506 248.55564,600.03223 245.25,604.9375 C 240.62796,611.79614 243.00932,619.73754 251.59375,626.1875 C 263.17966,634.89263 264.46874,636.37889 264.46875,641 C 264.46875,646.89948 260.83206,650 253.90625,650 C 249.94189,650 248.41892,649.4814 246.46875,647.53125 C 245.11875,646.18125 244,644.15623 244,643.03125 C 244,641.90625 243.59811,641 243.09375,641 C 242.58939,641 242.25188,643.8125 242.34375,647.25 L 242.5,653.5 L 247,654.71875 C 255.87325,657.09923 265.93542,654.1219 269.40625,648.09375 C 271.99957,643.58966 271.9393,635.76676 269.28125,632.15625 C 268.21186,630.70367 264.24114,627.16965 260.4375,624.3125 C 252.00852,617.98094 250,615.61127 250,611.96875 C 250,607.79957 250.92047,606.09356 254.0625,604.46875 C 259.79413,601.50482 265.13171,603.01344 267.4375,608.28125 L 268.84375,611.5 L 268.90625,605.3125 C 268.95111,601.90746 268.53311,598.81757 267.96875,598.46875 C 267.40438,598.11995 264.11102,597.80288 260.625,597.75 C 260.16272,597.74299 259.68964,597.73966 259.25,597.75 z M 182.90625,598 C 182.39779,598 182.00865,609.39939 182,624.25 C 181.99158,638.6875 181.63834,651.02738 181.21875,651.6875 C 180.79914,652.3476 179.32822,653.33248 177.96875,653.875 C 176.08239,654.6278 177.74996,654.875 185,654.875 C 191.45935,654.875 193.7979,654.59846 192.3125,654 C 191.11096,653.51589 189.64846,652.21988 189.0625,651.125 C 187.8438,648.84783 187.54957,613 188.75,613 C 189.1677,613 190.04944,613.82208 190.6875,614.84375 C 192.09695,617.10064 218.05978,648.18216 222.40625,652.8125 L 225.5,656.125 L 226.03125,628.8125 C 226.3285,613.79334 226.66599,601.4012 226.78125,601.28125 C 226.8965,601.16131 228.2375,600.38306 229.75,599.5625 C 232.35334,598.15017 231.99336,598.06563 223,598.03125 L 213.5,598 L 216.75,600 L 220,601.96875 L 219.96875,621.75 L 219.9375,641.5 L 217.71875,638.5 C 216.49867,636.85378 212.76573,632.35376 209.4375,628.5 C 206.10927,624.64621 198.9837,616.2125 193.59375,609.75 C 188.20379,603.2875 183.40056,598 182.90625,598 z M 280,598 L 280,604 C 280,607.33333 280.44444,610 281,610 C 281.55,610 282,609.11855 282,608.03125 C 282,604.6377 286.08393,602.85301 293.15625,603.1875 L 299.5,603.5 L 299.5,625.5 C 299.49365,637.6 299.15504,648.68992 298.75,650.15625 C 298.30093,651.78195 296.92817,653.23087 295.25,653.84375 C 293.09357,654.6313 294.77244,654.84382 303,654.875 C 312.66445,654.91164 313.2623,654.80581 310.40625,653.5625 C 306.26035,651.75774 306,650.09877 306,624.375 L 306,603 L 312.8125,603 C 320.43801,603 322.61884,604.07728 323.9375,608.5 C 324.68151,610.99539 324.83471,610.36681 324.90625,604.75 L 325,598 L 302.5,598 L 280,598 z M 367,598 L 350.25,598.03125 C 335.22039,598.06717 333.75337,598.22794 336.09375,599.5 C 339.46946,601.33476 340.03431,605.18303 339.9375,626.875 C 339.84246,648.17246 339.26435,652.06857 336,653.71875 C 333.89003,654.78535 336.19119,654.98759 350.75,655 L 368,655 L 367.875,648.75 C 367.8001,645.3125 367.51898,643.51733 367.28125,644.75 C 366.53317,648.62908 363.2528,650 354.78125,650 C 345.59427,650 345.76029,650.20718 346.21875,637 L 346.5,628.5 L 353.84375,628.5 C 360.35038,628.5 361.39958,628.78199 363.09375,630.875 L 365,633.21875 L 365,626.46875 C 365,619.97752 364.91078,619.7559 363.15625,621.34375 C 361.78912,622.58098 359.39111,623 353.65625,623 L 346,623 L 346,613 L 346,603 L 352.9375,603 C 361.2696,603 365,604.20169 365,606.90625 C 365,607.98741 365.45,609.16008 366,609.5 C 366.62464,609.88605 367,607.8472 367,604.0625 L 367,598 z M 525,598 L 525,604.5625 C 525,611.15353 526.23507,612.54355 527.3125,607.15625 C 527.98883,603.77461 529.94001,603.01972 538.25,603 L 544,603 L 544,626.75 C 543.99158,639.8125 543.63833,651.02738 543.21875,651.6875 C 542.79914,652.3476 541.32825,653.33248 539.96875,653.875 C 538.09545,654.62259 539.92121,654.875 547.5,654.875 C 555.07879,654.875 556.90452,654.62261 555.03125,653.875 C 553.67178,653.33246 552.20088,652.34759 551.78125,651.6875 C 551.36165,651.02739 551.00841,639.8125 551,626.75 L 551,603 L 556.75,603 C 565.04572,603.0197 567.01578,603.76628 567.6875,607.125 C 568.6751,612.063 570,610.26811 570,604 L 570,598 L 547.5,598 L 525,598 z M 434.5,598.09375 C 425.156,598.09291 424.70686,598.15433 427.65625,599.4375 C 430.69372,600.75899 430.84058,601.09843 431.53125,608.46875 C 431.92599,612.68126 432.04873,623.96222 431.8125,633.5 C 431.36225,651.68018 430.931,653.48647 426.6875,654.3125 C 425.48994,654.54562 432.4875,654.80009 442.25,654.875 L 460,655 L 459.96875,648.75 C 459.92973,642.51902 459.92494,642.51338 458.53125,645.71875 C 456.85872,649.56546 454.79403,650.21458 445.46875,649.8125 L 438.5,649.5 L 438.1875,629.5 C 437.81765,604.73771 438.2242,601.47944 441.8125,599.53125 C 444.3205,598.16957 443.82793,598.09461 434.5,598.09375 z M 724,598.15625 C 716.17221,598.21091 714.98413,598.39692 717.21875,599.28125 C 718.71033,599.87156 720.21491,601.07379 720.5625,601.9375 C 721.39249,603.99974 722.24759,638.75915 721.5,639.96875 C 721.18271,640.48214 712.96458,631.39833 703.21875,619.78125 C 693.47291,608.16417 684.937,598.479 684.25,598.25 C 683.27256,597.92419 683.01199,603.54966 683,624.15625 C 682.99158,638.63958 682.63833,651.02738 682.21875,651.6875 C 681.79914,652.3476 680.32825,653.33248 678.96875,653.875 C 677.07298,654.63156 678.7138,654.86893 686,654.90625 C 694.16903,654.94808 695.15823,654.81222 693.0625,653.75 C 689.52305,651.95607 688.91086,648.0717 689.21875,629.28125 L 689.5,612.5625 L 708,634.46875 L 726.5,656.40625 L 727.0625,628.9375 C 727.36848,613.84224 727.70597,601.4012 727.8125,601.28125 C 727.91902,601.16131 729.2375,600.38306 730.75,599.5625 C 733.34534,598.15451 732.96572,598.09364 724,598.15625 z M 390.5,598.1875 C 382.41529,598.20968 381.0231,598.42343 383.1875,599.28125 C 384.65993,599.86483 386.09868,601.26083 386.40625,602.40625 C 387.25799,605.57836 387.08958,650.31754 386.21875,651.6875 C 385.79914,652.3476 384.32822,653.33248 382.96875,653.875 C 381.19216,654.584 385.36072,655.05697 397.78125,654.9375 L 416.02623,654.762 L 415.78125,647.375 L 415.40625,642.5 L 414.125,645.71875 C 412.61789,649.46771 409.86249,650.29753 400.5,649.8125 L 394.5,649.5 L 394.21875,628 C 393.87128,602.42662 394.09893,600.50252 397.78125,599.15625 C 399.89032,598.38516 398.25868,598.16624 390.5,598.1875 z M 582.53125,598.1875 C 578.76504,598.27176 578.44063,598.56102 580,599.28125 C 581.375,599.91631 582.84593,600.90351 583.25,601.46875 C 584.22679,602.83507 584.19715,650.14828 583.21875,651.6875 C 582.79914,652.3476 581.32825,653.33248 579.96875,653.875 C 578.09545,654.62259 579.92121,654.875 587.5,654.875 C 594.24732,654.875 596.78654,654.59388 595.3125,654 C 594.11096,653.51589 592.64846,652.21988 592.0625,651.125 C 590.95305,649.05197 590.54317,606.31893 591.59375,602.40625 C 591.90131,601.26083 593.34004,599.86483 594.8125,599.28125 C 596.97898,598.42261 595.59248,598.21881 587.5,598.1875 C 585.42084,598.17945 583.78665,598.15941 582.53125,598.1875 z M 135.875,602.96875 C 147.37139,602.60745 158.27289,611.78329 158.375,625.5 C 158.45309,635.98939 154.07946,643.87691 145.875,648.0625 C 141.17578,650.45987 131.79317,650.60308 127.5,648.34375 C 118.88618,643.81067 114.625,636.57526 114.625,626.5 C 114.625,618.16213 116.96754,612.80662 122.71875,608.0625 C 126.79004,604.70413 131.37641,603.11013 135.875,602.96875 z M 637.4375,603.09375 C 643.50869,603.08338 649.65508,605.61115 654.1875,610.90625 C 664.32698,622.75195 660.13171,642.74414 646.28125,648.53125 C 635.49297,653.03887 622.05781,647.5427 617.5625,636.78125 C 615.26336,631.27729 615.52431,620.62029 618.09375,615.3125 C 621.9627,607.32032 629.63169,603.10708 637.4375,603.09375 z M 493.1875,612.46875 C 493.63028,612.02598 501,630.98179 501,632.5625 C 501,632.79628 497.45258,633 493.125,633 L 485.25,633 L 488.9375,623.03125 C 490.96275,617.5419 492.88243,612.77382 493.1875,612.46875 z "
       id="path2163"
       sodipodi:nodetypes="csssscccssssssccssscccssssscccccsssssccsssssssccssssssscccssssscccssccsssssssscccsscccccccsscccsscccsssscccsccccccssscccssccccccscccccssccccscccssssscccscccccsssscccscccsccsssssssssscccccssccssssscccccccsccssssssssssccsssssccssssccscccc" />
  </g>
</svg>
